<?xml version="1.0" encoding="UTF-8"?>
<svg viewBox="0 0 654.74255 1018.9951" xmlns="http://www.w3.org/2000/svg" xmlns:xlink="http://www.w3.org/1999/xlink">
 <defs>
  <filter id="c" x="-.11716" y="-.13548" width="1.2343" height="1.271">
   <feGaussianBlur stdDeviation="9.73195"/>
  </filter>
  <linearGradient id="a">
   <stop stop-color="#fff" offset="0"/>
   <stop stop-color="#fff" stop-opacity="0" offset="1"/>
  </linearGradient>
  <linearGradient id="f" x1="605.94" x2="566.5" y1="1043.4" y2="976.17" gradientUnits="userSpaceOnUse">
   <stop stop-color="#000080" offset="0"/>
   <stop stop-color="#fff" stop-opacity=".33" offset="1"/>
  </linearGradient>
  <linearGradient id="j" x1="154.84" x2="157.64" y1="141.24" y2="96.987" gradientUnits="userSpaceOnUse">
   <stop stop-color="#e6e6e6" offset="0"/>
   <stop stop-color="#e6e6e6" stop-opacity="0" offset="1"/>
  </linearGradient>
  <linearGradient id="ah" x1="240.85" x2="178.74" y1="-35.273" y2="205.58" gradientTransform="matrix(1.0588 0 0 .82193 443.98 887.48)" gradientUnits="userSpaceOnUse" xlink:href="#a"/>
  <linearGradient id="d" x1="157.19" x2="151.48" y1="101" y2="128.89" gradientTransform="matrix(-.54257 .14635 -.2991 -.26547 718.04 141.22)" gradientUnits="userSpaceOnUse" xlink:href="#a"/>
  <linearGradient id="i" x1="605.3" x2="582.48" y1="988.35" y2="1034" gradientUnits="userSpaceOnUse" xlink:href="#a"/>
  <linearGradient id="m" x1="447.77" x2="385.66" y1="859.23" y2="1100.1" gradientUnits="userSpaceOnUse" xlink:href="#a"/>
  <linearGradient id="e" x1="157.19" x2="151.48" y1="101" y2="128.89" gradientTransform="matrix(-.54257 .14635 -.2991 -.26547 765.61 139.51)" gradientUnits="userSpaceOnUse" xlink:href="#a"/>
  <linearGradient id="n" x1="203.12" x2="141" y1="764.16" y2="1005" gradientUnits="userSpaceOnUse" xlink:href="#a"/>
  <linearGradient id="o" x1="703.63" x2="641.52" y1="636.32" y2="877.17" gradientUnits="userSpaceOnUse" xlink:href="#a"/>
  <linearGradient id="q" x1="696.46" x2="634.35" y1="410.44" y2="651.29" gradientUnits="userSpaceOnUse" xlink:href="#a"/>
  <linearGradient id="u" x1="696.46" x2="634.35" y1="187.33" y2="428.18" gradientUnits="userSpaceOnUse" xlink:href="#a"/>
  <linearGradient id="ab" x1="694.67" x2="632.55" y1="-40.344" y2="200.51" gradientUnits="userSpaceOnUse" xlink:href="#a"/>
  <linearGradient id="h" x1="157.19" x2="151.48" y1="101" y2="128.89" gradientTransform="matrix(-.462 .19324 -.25469 -.35053 537.97 593.21)" gradientUnits="userSpaceOnUse" xlink:href="#a"/>
  <linearGradient id="g" x1="157.19" x2="151.48" y1="101" y2="128.89" gradientTransform="matrix(-.53106 .20844 -.29276 -.3781 494.56 593.87)" gradientUnits="userSpaceOnUse" xlink:href="#a"/>
  <linearGradient id="p" x1="215.56" x2="153.45" y1="657.08" y2="897.93" gradientUnits="userSpaceOnUse" xlink:href="#a"/>
  <linearGradient id="ai" x1="490.64" x2="428.53" y1="416.22" y2="657.08" gradientUnits="userSpaceOnUse" xlink:href="#a"/>
  <linearGradient id="t" x1="223.53" x2="161.41" y1="419.81" y2="660.66" gradientUnits="userSpaceOnUse" xlink:href="#a"/>
  <linearGradient id="s" x1="157.19" x2="151.48" y1="101" y2="128.89" gradientTransform="matrix(-.53106 .20844 -.29276 -.3781 227.44 597.46)" gradientUnits="userSpaceOnUse" xlink:href="#a"/>
  <linearGradient id="r" x1="157.19" x2="151.48" y1="101" y2="128.89" gradientTransform="matrix(-.462 .19324 -.25469 -.35053 270.85 596.79)" gradientUnits="userSpaceOnUse" xlink:href="#a"/>
  <linearGradient id="x" x1="487.2" x2="425.08" y1="186.56" y2="427.42" gradientUnits="userSpaceOnUse" xlink:href="#a"/>
  <linearGradient id="w" x1="157.19" x2="151.48" y1="101" y2="128.89" gradientTransform="matrix(-.53106 .20844 -.29276 -.3781 501.42 370.04)" gradientUnits="userSpaceOnUse" xlink:href="#a"/>
  <linearGradient id="v" x1="157.19" x2="151.48" y1="101" y2="128.89" gradientTransform="matrix(-.462 .19324 -.25469 -.35053 542.14 367.58)" gradientUnits="userSpaceOnUse" xlink:href="#a"/>
  <linearGradient id="aa" x1="243.39" x2="181.27" y1="186.56" y2="427.42" gradientUnits="userSpaceOnUse" xlink:href="#a"/>
  <linearGradient id="z" x1="157.19" x2="151.48" y1="101" y2="128.89" gradientTransform="matrix(-.54257 .14635 -.2991 -.26547 261.01 378.54)" gradientUnits="userSpaceOnUse" xlink:href="#a"/>
  <linearGradient id="y" x1="157.19" x2="151.48" y1="101" y2="128.89" gradientTransform="matrix(-.54257 .14635 -.2991 -.26547 314.13 374.55)" gradientUnits="userSpaceOnUse" xlink:href="#a"/>
  <linearGradient id="ae" x1="491.84" x2="429.73" y1="-40.344" y2="200.51" gradientUnits="userSpaceOnUse" xlink:href="#a"/>
  <linearGradient id="ad" x1="157.19" x2="151.48" y1="101" y2="128.89" gradientTransform="matrix(-.54257 .14635 -.2991 -.26547 505.71 137.42)" gradientUnits="userSpaceOnUse" xlink:href="#a"/>
  <linearGradient id="ac" x1="157.19" x2="151.48" y1="101" y2="128.89" gradientTransform="matrix(-.54257 .14635 -.2991 -.26547 561.52 132.53)" gradientUnits="userSpaceOnUse" xlink:href="#a"/>
  <linearGradient id="ag" x1="243.39" x2="181.27" y1="-39.076" y2="201.78" gradientUnits="userSpaceOnUse" xlink:href="#a"/>
  <linearGradient id="af" x1="157.19" x2="151.48" y1="101" y2="128.89" gradientTransform="matrix(-.54257 .14635 -.2991 -.26547 268.66 149.46)" gradientUnits="userSpaceOnUse" xlink:href="#a"/>
  <linearGradient id="l" x1="157.19" x2="151.48" y1="101" y2="128.89" gradientTransform="matrix(-.54257 .14635 -.2991 -.26547 309.9 149.01)" gradientUnits="userSpaceOnUse" xlink:href="#a"/>
  <linearGradient id="k" x1="158.28" x2="157.57" y1="158.68" y2="102.9" gradientUnits="userSpaceOnUse" xlink:href="#a"/>
  <radialGradient id="b" cx="200.99" cy="183.04" r="86.833" gradientTransform="matrix(-.01248 -.77362 .90511 -.0146 14.306 334.59)" gradientUnits="userSpaceOnUse">
   <stop stop-color="#0ff" offset="0"/>
   <stop stop-color="#0ff" stop-opacity="0" offset="1"/>
  </radialGradient>
 </defs>
 <g transform="translate(-86.2 -55.997)">
  <path transform="matrix(.82542 0 -.16994 .18042 61.613 193.32)" d="m259.87 144.73c0 47.607-38.877 86.2-86.833 86.2s-86.833-38.593-86.833-86.2 38.877-86.2 86.833-86.2 86.833 38.593 86.833 86.2z" filter="url(#c)" opacity=".77"/>
  <path d="m259.87 144.73c0 47.607-38.877 86.2-86.833 86.2s-86.833-38.593-86.833-86.2 38.877-86.2 86.833-86.2 86.833 38.593 86.833 86.2z" fill="#00f"/>
  <path d="m259.87 144.73c0 47.607-38.877 86.2-86.833 86.2s-86.833-38.593-86.833-86.2 38.877-86.2 86.833-86.2 86.833 38.593 86.833 86.2z" fill="url(#b)"/>
  <path d="m175.54 67.51c-16.973 0.16674-35.786 5.213-47.219 18.188 11.412 42.172 65.822 66.537 104.44 44.969 4.8731-2.7662 11.399-5.548 14.156-10.031-8.5989-30.8-39.239-54.038-71.375-53.125z" fill="url(#ag)"/>
  <path transform="matrix(1.4493 0 0 1.3333 -78.595 -30.625)" d="m171.13 119.38c0 8.4012-6.5267 15.212-14.578 15.212s-14.578-6.8105-14.578-15.212 6.5267-15.212 14.578-15.212 14.578 6.8105 14.578 15.212z" fill="#f9f9f9"/>
  <path transform="matrix(.84258 0 0 .84258 20.494 31.995)" d="m171.13 119.38c0 8.4012-6.5267 15.212-14.578 15.212s-14.578-6.8105-14.578-15.212 6.5267-15.212 14.578-15.212 14.578 6.8105 14.578 15.212z"/>
  <path d="m136.56 189.95c2.5339 0.55431 6.8595 5.1475 9.4316 5.3203 2.4378 0.13927 6.6327 1.8176 9.073 1.8244 2.3394 8.5e-4 4.3866-0.67113 6.7261-0.67429 2.6823-1e-3 5.949 0.33081 8.6313 0.33081 2.9758-1.6e-4 5.6594-1.336 8.6353-1.336 2.8442-0.39395 5.6111-1.4473 8.2698-2.6436 2.5081-1.1367 4.6806-2.9723 6.8246-4.8043 1.5986-1.5156 3.0958-3.2099 4.4625-5.001 1.1037-1.8934 1.8768-3.9945 2.8721-5.9583 0.69799-1.1802-0.92773-3.997-0.14728-5.1068 2.0908-2.9272 8.0511 2.1218 5.9604 5.0489l0.29225-0.33398c-0.64644 0.8843-1.4812 2.1728-2.0757 3.1026-1.1769 2.2319-1.966 4.7298-3.4002 6.7891-1.5993 2.0436-3.2933 4.0246-5.166 5.7408-2.4819 2.1163-5.0164 4.1993-7.9218 5.5005-3.2026 1.4194-6.5299 2.688-9.9707 3.0097l-8.9271 8e-5 -8.0429 4e-3c-2.3447 1e-3 -4.6894 7e-3 -7.0341 6e-3 -2.5285-7e-3 -7.3962-2.355-9.9221-2.5017-2.7872-0.18933-8.2042-5.4772-10.949-6.0827-3.2422-0.74105-0.86392-2.9751 2.3783-2.2341z"/>
  <path d="m156.28 142.84c2.5861-0.78514 3.8952-2.4153 3.2639-3.8335-5.0432-0.3142-10.23 0.56622-14.882 1.1152 0.76566 2.4602 7.2506 4.1795 11.618 2.7182z" fill="url(#af)"/>
  <path d="m127.68 107.36c2.3094-0.90611 4.6803-1.7017 6.9308-2.7478 2.0445-1.295 4.6005-1.2672 6.7038-2.3515 1.9578-0.81837 3.7251-1.9817 5.5734-3.0095 0.86701-0.68102 1.8275-1.2028 2.7969-1.718 3.18-1.6562 5.5222 2.8411 2.3422 4.4972-0.9444 0.4763-1.8263 1.0391-2.686 1.6585-1.9567 1.0736-3.8248 2.3066-5.8917 3.171-2.2005 0.96791-4.5874 1.2622-6.7375 2.367-2.6174 1.1737-5.3178 2.1938-8.0375 3.1052-3.5158 0.70316-4.5102-4.2689-0.99442-4.9721z"/>
  <path d="m214.11 109.43c-2.7298-0.88602-5.508-1.5182-8.1148-2.7463-2.1422-0.98073-4.2148-2.0573-6.0557-3.5363-0.86253-0.62746-1.5838-1.413-2.3793-2.1188-2.673-2.3897 0.70657-6.1698 3.3795-3.7801 0.74923 0.67374 1.4322 1.4078 2.2471 2.0047 1.448 1.3013 3.3185 1.9858 5.0252 2.8703 2.4559 1.2564 5.224 1.6016 7.7812 2.5987 3.329 1.3316 1.4458 6.0395-1.8832 4.7079z"/>
  <path transform="matrix(1.4493 0 0 1.3333 -27.054 -29.729)" d="m171.13 119.38c0 8.4012-6.5267 15.212-14.578 15.212s-14.578-6.8105-14.578-15.212 6.5267-15.212 14.578-15.212 14.578 6.8105 14.578 15.212z" fill="#f9f9f9"/>
  <path transform="matrix(.84258 0 0 .84258 61.726 31.546)" d="m171.13 119.38c0 8.4012-6.5267 15.212-14.578 15.212s-14.578-6.8105-14.578-15.212 6.5267-15.212 14.578-15.212 14.578 6.8105 14.578 15.212z"/>
  <path d="m197.52 142.4c2.5861-0.78514 3.8952-2.4153 3.2639-3.8335-5.0432-0.3142-10.23 0.56622-14.882 1.1152 0.76566 2.4602 7.2506 4.1795 11.618 2.7182z" fill="url(#l)"/>
 </g>
 <g transform="translate(-102.05 -54.729)">
  <path transform="matrix(.82542 0 -.16994 .18042 310.07 192.05)" d="m259.87 144.73c0 47.607-38.877 86.2-86.833 86.2s-86.833-38.593-86.833-86.2 38.877-86.2 86.833-86.2 86.833 38.593 86.833 86.2z" filter="url(#c)" opacity=".77"/>
  <path transform="translate(248.46 -1.2676)" d="m259.87 144.73c0 47.607-38.877 86.2-86.833 86.2s-86.833-38.593-86.833-86.2 38.877-86.2 86.833-86.2 86.833 38.593 86.833 86.2z" fill="#00f"/>
  <path transform="translate(248.46 -1.2676)" d="m259.87 144.73c0 47.607-38.877 86.2-86.833 86.2s-86.833-38.593-86.833-86.2 38.877-86.2 86.833-86.2 86.833 38.593 86.833 86.2z" fill="url(#b)"/>
  <path d="m423.99 66.242c-16.973 0.16673-35.786 5.213-47.219 18.188 11.412 42.172 65.822 66.537 104.44 44.969 4.8731-2.7662 11.399-5.548 14.156-10.031-8.5989-30.8-39.239-54.038-71.375-53.125z" fill="url(#ae)"/>
  <path d="m373.81 94.181c2.4486 0.36141 4.897 0.78884 7.3622 1.0726 2.4066 0.11342 4.6169 0.9453 6.9726 1.1659 2.1001 0.28533 4.2017 0.36497 6.308 0.52742 1.0845-0.0072 2.1731 0.08239 3.2662 0.17758 3.5696 0.3265 3.4272 2.9626-0.14246 2.6362-1.0525-0.10391-2.0927-0.15062-3.1409-0.16694-2.2229-0.17801-4.4459-0.26083-6.6632-0.56183-2.3837-0.30056-4.6031-0.9432-7.0094-1.1702-2.8463-0.34809-5.6902-0.78721-8.4983-1.278-3.3998-0.83357-1.8545-3.2362 1.5452-2.4027z"/>
  <path d="m454.77 84.578c-2.1633 1.2025-4.3032 2.4668-6.5095 3.6026-2.2116 0.9557-3.9859 2.5143-6.112 3.5523-1.8642 1.0084-3.8023 1.8248-5.7157 2.7203-1.0172 0.37614-2.0041 0.84424-2.9933 1.3192-3.2245 1.5656-2.1606 3.9817 1.0639 2.4161 0.94807-0.46878 1.9048-0.87967 2.8797-1.265 2.0169-0.95128 4.0676-1.8136 6.0359-2.8779 2.1241-1.1227 3.9738-2.5075 6.145-3.5693 2.5401-1.3305 5.046-2.7453 7.4999-4.1958 2.8866-1.9801 0.59265-3.6826-2.294-1.7025z"/>
  <path transform="matrix(2.6014 0 0 1.25 17.499 48.115)" d="m171.13 119.38c0 8.4012-6.5267 15.212-14.578 15.212s-14.578-6.8105-14.578-15.212 6.5267-15.212 14.578-15.212 14.578 6.8105 14.578 15.212z"/>
  <path transform="matrix(1.7754 0 0 .5 147.46 147.79)" d="m171.13 119.38c0 8.4012-6.5267 15.212-14.578 15.212s-14.578-6.8105-14.578-15.212 6.5267-15.212 14.578-15.212 14.578 6.8105 14.578 15.212z" fill="url(#k)"/>
  <path transform="matrix(1.4493 0 0 1.3333 167.33 -35.062)" d="m171.13 119.38c0 8.4012-6.5267 15.212-14.578 15.212s-14.578-6.8105-14.578-15.212 6.5267-15.212 14.578-15.212 14.578 6.8105 14.578 15.212z" fill="#f9f9f9"/>
  <path transform="matrix(.84258 0 0 .84258 257.54 19.952)" d="m171.13 119.38c0 8.4012-6.5267 15.212-14.578 15.212s-14.578-6.8105-14.578-15.212 6.5267-15.212 14.578-15.212 14.578 6.8105 14.578 15.212z"/>
  <path d="m393.33 130.8c2.5861-0.78514 3.8952-2.4153 3.2639-3.8335-5.0432-0.3142-10.23 0.56622-14.882 1.1152 0.76566 2.4602 7.2506 4.1795 11.618 2.7182z" fill="url(#ad)"/>
  <path transform="matrix(1.4493 0 0 1.3333 224.57 -39.87)" d="m171.13 119.38c0 8.4012-6.5267 15.212-14.578 15.212s-14.578-6.8105-14.578-15.212 6.5267-15.212 14.578-15.212 14.578 6.8105 14.578 15.212z" fill="#f9f9f9"/>
  <path transform="matrix(.84258 0 0 .84258 313.35 15.067)" d="m171.13 119.38c0 8.4012-6.5267 15.212-14.578 15.212s-14.578-6.8105-14.578-15.212 6.5267-15.212 14.578-15.212 14.578 6.8105 14.578 15.212z"/>
  <path d="m449.14 125.92c2.5861-0.78514 3.8952-2.4153 3.2639-3.8335-5.0432-0.3142-10.23 0.56622-14.882 1.1152 0.76566 2.4602 7.2506 4.1795 11.618 2.7182z" fill="url(#ac)"/>
 </g>
 <g transform="translate(-81.129 -75.011)">
  <path transform="matrix(.82542 0 -.16994 .18042 61.613 418.96)" d="m259.87 144.73c0 47.607-38.877 86.2-86.833 86.2s-86.833-38.593-86.833-86.2 38.877-86.2 86.833-86.2 86.833 38.593 86.833 86.2z" filter="url(#c)" opacity=".77"/>
  <path transform="translate(0 225.64)" d="m259.87 144.73c0 47.607-38.877 86.2-86.833 86.2s-86.833-38.593-86.833-86.2 38.877-86.2 86.833-86.2 86.833 38.593 86.833 86.2z" fill="#00f"/>
  <path transform="translate(0 225.64)" d="m259.87 144.73c0 47.607-38.877 86.2-86.833 86.2s-86.833-38.593-86.833-86.2 38.877-86.2 86.833-86.2 86.833 38.593 86.833 86.2z" fill="url(#b)"/>
  <path d="m175.54 293.15c-16.973 0.16673-35.786 5.213-47.219 18.188 11.412 42.172 65.822 66.537 104.44 44.969 4.8731-2.7662 11.399-5.548 14.156-10.031-8.5989-30.8-39.239-54.038-71.375-53.125z" fill="url(#aa)"/>
  <g transform="matrix(.78506 0 0 .78506 189.23 107.32)">
   <path d="m-57.25 375.91c-2.3666 1.9789-2.0662 5.9541 0.125 7.9375 5.2681 7.3258 10.07 15.253 17.307 20.852 6.2949 4.8466 14.53 6.5161 22.339 6.0973 9.0291-0.45473 18.028-3.8763 24.62-10.152 7.0055-6.3346 12.693-13.927 18.921-20.985 0.64461-1.2077-0.29893-3.1229-1.8071-2.7022-1.9684 0.27478-2.6362 2.4623-3.881 3.7228-6.2886 7.6884-12.137 15.98-20.23 21.919-4.9786 3.4899-11.087 5.1302-17.13 5.1518-6.3519 0.36896-13.08 0.10403-18.774-3.0477-5.5577-3.0988-9.1588-8.6101-12.106-14.073-2.7499-4.9678-5.1929-10.176-8.8539-14.564-0.14101-0.11701-0.34088-0.24848-0.53125-0.15625z"/>
   <path d="m-54.203 373.77c-1.9632 2.5261-4.1149 4.9338-6.6348 6.9121l-1.4059 0.83057c-3.1132 1.7786-5.6286-2.624-2.5154-4.4027l0.82879-0.44621c2.1974-1.6403 3.9547-3.8167 5.6709-5.9362 2.1513-2.8683 6.2077 0.17399 4.0564 3.0423z"/>
   <path d="m23.949 374.26c2.0425 1.6029 3.7252 3.6412 5.8741 5.1057l1.0008 0.77215c2.8341 2.1962-0.27178 6.2042-3.1059 4.008l-0.81334-0.63366c-2.3507-1.6887-4.3259-3.8098-6.5411-5.6668-2.5353-2.5353 1.0502-6.1207 3.5854-3.5854z"/>
  </g>
  <path d="m217.19 333.29c-2.3355-0.81937-4.7017-1.5802-7.0158-2.476-2.183-1.0193-4.5265-1.3114-6.7143-2.2122-1.9917-0.72458-3.889-1.6319-5.829-2.4682-0.95661-0.51093-1.9619-0.93818-2.9738-1.3625-3.3116-1.3719-4.412 1.0278-1.1005 2.3997 0.98 0.39774 1.9224 0.84036 2.8579 1.3136 2.0504 0.8767 4.0567 1.8377 6.1595 2.603 2.2498 0.84306 4.5134 1.3068 6.7489 2.2255 2.6814 1.0162 5.403 1.9507 8.117 2.8228 3.3972 0.844 3.1473-2.0017-0.24987-2.8457z"/>
  <path d="m133.59 329.92c2.4486 0.3614 4.897 0.78884 7.3622 1.0726 2.4066 0.11342 4.6169 0.94531 6.9726 1.1659 2.1001 0.28533 4.2017 0.36497 6.308 0.52742 1.0845-7e-3 2.1731 0.0824 3.2662 0.17757 3.5696 0.3265 3.4272 2.9626-0.14246 2.6362-1.0525-0.10391-2.0927-0.15062-3.1409-0.16694-2.2229-0.17801-4.4459-0.26083-6.6632-0.56183-2.3837-0.30055-4.6031-0.9432-7.0094-1.1702-2.8463-0.34809-5.6902-0.78721-8.4983-1.278-3.3998-0.83357-1.8545-3.2362 1.5452-2.4027z"/>
  <path transform="matrix(1.4493 0 0 1.3333 -83.653 197.99)" d="m171.13 119.38c0 8.4012-6.5267 15.212-14.578 15.212s-14.578-6.8105-14.578-15.212 6.5267-15.212 14.578-15.212 14.578 6.8105 14.578 15.212z" fill="#f9f9f9"/>
  <path transform="matrix(.84258 0 0 .84258 12.837 261.07)" d="m171.13 119.38c0 8.4012-6.5267 15.212-14.578 15.212s-14.578-6.8105-14.578-15.212 6.5267-15.212 14.578-15.212 14.578 6.8105 14.578 15.212z"/>
  <path d="m148.63 371.92c2.5861-0.78514 3.8952-2.4153 3.2639-3.8335-5.0432-0.3142-10.23 0.56622-14.882 1.1152 0.76566 2.4602 7.2506 4.1795 11.618 2.7182z" fill="url(#z)"/>
  <path transform="matrix(1.4493 0 0 1.3333 -28.2 195.87)" d="m171.13 119.38c0 8.4012-6.5267 15.212-14.578 15.212s-14.578-6.8105-14.578-15.212 6.5267-15.212 14.578-15.212 14.578 6.8105 14.578 15.212z" fill="#f9f9f9"/>
  <path transform="matrix(.84258 0 0 .84258 65.958 257.08)" d="m171.13 119.38c0 8.4012-6.5267 15.212-14.578 15.212s-14.578-6.8105-14.578-15.212 6.5267-15.212 14.578-15.212 14.578 6.8105 14.578 15.212z"/>
  <path d="m201.75 367.93c2.5861-0.78514 3.8952-2.4153 3.2639-3.8335-5.0432-0.3142-10.23 0.56622-14.882 1.1152 0.76566 2.4602 7.2506 4.1795 11.618 2.7182z" fill="url(#y)"/>
 </g>
 <g transform="translate(-89.791 -75.011)">
  <path transform="matrix(.82542 0 -.16994 .18042 305.42 418.96)" d="m259.87 144.73c0 47.607-38.877 86.2-86.833 86.2s-86.833-38.593-86.833-86.2 38.877-86.2 86.833-86.2 86.833 38.593 86.833 86.2z" filter="url(#c)" opacity=".77"/>
  <path transform="translate(243.81 225.64)" d="m259.87 144.73c0 47.607-38.877 86.2-86.833 86.2s-86.833-38.593-86.833-86.2 38.877-86.2 86.833-86.2 86.833 38.593 86.833 86.2z" fill="#00f"/>
  <path transform="translate(243.81 225.64)" d="m259.87 144.73c0 47.607-38.877 86.2-86.833 86.2s-86.833-38.593-86.833-86.2 38.877-86.2 86.833-86.2 86.833 38.593 86.833 86.2z" fill="url(#b)"/>
  <path d="m419.34 293.15c-16.973 0.16673-35.786 5.213-47.219 18.188 11.412 42.172 65.822 66.537 104.44 44.969 4.8731-2.7662 11.399-5.548 14.156-10.031-8.5989-30.8-39.239-54.038-71.375-53.125z" fill="url(#x)"/>
  <path d="m451.8 300.33c-2.3319 0.82977-4.6508 1.7243-7.014 2.4812-2.3388 0.57835-4.3456 1.8234-6.6137 2.497-2.0048 0.68751-4.0509 1.1735-6.0857 1.7417-1.0652 0.20345-2.1158 0.50259-3.1697 0.80813-3.4384 1.0131-2.787 3.5715 0.65139 2.5584 1.0123-0.30621 2.0236-0.55391 3.0488-0.77338 2.1461-0.60606 4.3108-1.1188 6.4275-1.8444 2.2801-0.75748 4.3325-1.8187 6.649-2.5084 2.7246-0.89389 5.4292-1.8766 8.0886-2.9031 3.1733-1.4776 1.1911-3.5346-1.9822-2.0571z"/>
  <path d="m381.07 297.32c2.2125 1.1096 4.4042 2.2818 6.6566 3.3229 2.2502 0.86089 4.0891 2.3427 6.2574 3.2895 1.9053 0.92826 3.8764 1.6616 5.8261 2.4751 1.0322 0.33275 2.0382 0.75836 3.0466 1.1909 3.2881 1.4272 2.3278 3.8864-0.96033 2.4592-0.96713-0.4281-1.9404-0.79799-2.9309-1.1416-2.0555-0.86476-4.141-1.6392-6.1527-2.619-2.1699-1.0315-4.0767-2.3364-6.291-3.3051-2.5943-1.2214-5.158-2.5285-7.6714-3.8735-2.9681-1.8557-0.74853-3.6541 2.2196-1.7984z"/>
  <path transform="matrix(1.4185 0 0 1.899 164.07 112.89)" d="m171.13 119.38c0 8.4012-6.5267 15.212-14.578 15.212s-14.578-6.8105-14.578-15.212 6.5267-15.212 14.578-15.212 14.578 6.8105 14.578 15.212z" fill="#f9f9f9"/>
  <path transform="matrix(.8247 0 0 1.2 258.52 202.74)" d="m171.13 119.38c0 8.4012-6.5267 15.212-14.578 15.212s-14.578-6.8105-14.578-15.212 6.5267-15.212 14.578-15.212 14.578 6.8105 14.578 15.212z"/>
  <path d="m391.43 360.61c2.5312-1.1182 3.8126-3.44 3.1947-5.4599-4.9362-0.4475-10.013 0.80645-14.567 1.5884 0.74941 3.5039 7.0968 5.9527 11.372 3.8715z" fill="url(#w)"/>
  <path transform="matrix(1.2341 0 0 1.7605 250.64 131.65)" d="m171.13 119.38c0 8.4012-6.5267 15.212-14.578 15.212s-14.578-6.8105-14.578-15.212 6.5267-15.212 14.578-15.212 14.578 6.8105 14.578 15.212z" fill="#f9f9f9"/>
  <path transform="matrix(.71746 0 0 1.1125 330.82 212.47)" d="m171.13 119.38c0 8.4012-6.5267 15.212-14.578 15.212s-14.578-6.8105-14.578-15.212 6.5267-15.212 14.578-15.212 14.578 6.8105 14.578 15.212z"/>
  <path d="m446.45 358.84c2.202-1.0367 3.3168-3.1891 2.7792-5.0618-4.2943-0.41488-8.7113 0.74764-12.672 1.4726 0.65197 3.2484 6.174 5.5187 9.8931 3.5892z" fill="url(#v)"/>
  <g transform="matrix(1 0 0 1.4215 -3.9567 -172.82)">
   <path d="m394.4 414.6 20.616 10.756 12.997 1.7927 9.4118-1.3445 10.756-7.1709 6.2745-8.0672-13.894 4.93h-36.302z" fill="#fff" stroke="#000"/>
   <path d="m382.14 406.85c4.7732 2.7244 6.9301 4.2637 11.772 6.8365 4.3911 2.6928 12.217 4.9249 16.9 7.0067 4.7724 1.3642 8.4106 2.5815 14.626 2.9358 4.8604-0.1045 7.7267-1.2237 12.762-1.8729 10.073-4.2681 13.044-9.5479 18.684-14.238 1.9112-0.84205 4.1449-5.0753 4.6938-4.8376-0.81623 1.8702 4.2757 2.7518 1.0002 4.0471-5.749 5.1504-13.056 8.0794-20.149 10.531-5.5563 0.87298-8.6945 2.2896-13.203 2.0433-5.1093 0.0457-10.246 0.23982-15.338-0.17814-4.2107-1.0411-11.237-1.2284-15.265-2.8279-3.3527-1.6272-13.357-2.1846-16.08-4.7761-2.9621-0.60681-9.9556-6.7408-5.933-7.0131 3.5771 1.3587 20.17 6.2873 23.885 7.4749 6.0245 2.0279 7.3432 2.1889 12.924 2.6926 5.3602 0.77893 10.796 0.21374 16.189 0.36146 3.8725-0.0167 9.0706-0.55459 12.507-2.2304 6.5006-2.3555 12.146-4.4159 17.452-9.1973 7.2397-4.6818 9.9986-8.0243 8.8704-3.4841-1.2156 2.539-6.5853 8.6546-8.6434 10.602-5.8306 4.7811-11.015 10.4-17.452 14.408-3.4473 2.1666-7.5468 3.2582-11.613 2.8081-5.57-9e-3 -11.411 0.43988-16.638-1.8746-5.6067-1.1375-10.656-3.9415-15.959-5.9663-2.986-1.5009-5.7681-3.3369-8.8625-4.635-3.3264-1.7316-6.8284-3.2988-9.8611-5.4807-1.2257-1.6864 0.88433-4.1584 2.7312-3.1349z"/>
  </g>
 </g>
 <g transform="translate(-58.734 -100.36)">
  <path transform="matrix(.82542 0 -.16994 .18042 41.753 652.21)" d="m259.87 144.73c0 47.607-38.877 86.2-86.833 86.2s-86.833-38.593-86.833-86.2 38.877-86.2 86.833-86.2 86.833 38.593 86.833 86.2z" filter="url(#c)" opacity=".77"/>
  <path transform="translate(-19.86 458.89)" d="m259.87 144.73c0 47.607-38.877 86.2-86.833 86.2s-86.833-38.593-86.833-86.2 38.877-86.2 86.833-86.2 86.833 38.593 86.833 86.2z" fill="#00f"/>
  <path transform="translate(-19.86 458.89)" d="m259.87 144.73c0 47.607-38.877 86.2-86.833 86.2s-86.833-38.593-86.833-86.2 38.877-86.2 86.833-86.2 86.833 38.593 86.833 86.2z" fill="url(#b)"/>
  <path d="m155.68 526.4c-16.973 0.16673-35.786 5.213-47.219 18.188 11.412 42.172 65.822 66.537 104.44 44.969 4.8731-2.7662 11.399-5.548 14.156-10.031-8.5989-30.8-39.239-54.038-71.375-53.125z" fill="url(#t)"/>
  <path d="m191.72 537.16c-2.3319 0.82977-4.6508 1.7243-7.014 2.4812-2.3388 0.57835-4.3456 1.8234-6.6137 2.497-2.0048 0.68751-4.0509 1.1735-6.0857 1.7417-1.0652 0.20345-2.1158 0.50259-3.1697 0.80813-3.4384 1.0131-2.787 3.5715 0.65139 2.5584 1.0123-0.30621 2.0236-0.55391 3.0488-0.77338 2.1461-0.60606 4.3108-1.1188 6.4275-1.8444 2.2801-0.75748 4.3325-1.8187 6.649-2.5084 2.7246-0.89389 5.4292-1.8766 8.0886-2.9031 3.1733-1.4776 1.1911-3.5346-1.9822-2.0571z"/>
  <path d="m102.89 544.06c2.3743-0.69918 4.7762-1.3384 7.133-2.115 2.2321-0.90668 4.5875-1.0788 6.8184-1.8669 2.0261-0.62205 3.9671-1.4314 5.9474-2.1676 0.98148-0.46133 2.0072-0.83689 3.0394-1.2091 3.3772-1.2012 4.3539 1.2515 0.97663 2.4527-0.99902 0.34724-1.9628 0.74121-2.9212 1.1662-2.0925 0.77097-4.1452 1.6284-6.2842 2.2854-2.2899 0.72722-4.5742 1.075-6.8537 1.8784-2.7297 0.87811-5.4955 1.6726-8.2504 2.4052-3.4358 0.66963-3.0411-2.1596 0.39469-2.8293z"/>
  <path transform="matrix(1.4185 0 0 1.899 -99.596 346.14)" d="m171.13 119.38c0 8.4012-6.5267 15.212-14.578 15.212s-14.578-6.8105-14.578-15.212 6.5267-15.212 14.578-15.212 14.578 6.8105 14.578 15.212z" fill="#f9f9f9"/>
  <path transform="matrix(.8247 0 0 1.2 -15.461 430.16)" d="m171.13 119.38c0 8.4012-6.5267 15.212-14.578 15.212s-14.578-6.8105-14.578-15.212 6.5267-15.212 14.578-15.212 14.578 6.8105 14.578 15.212z"/>
  <path d="m117.45 588.03c2.5312-1.1182 3.8126-3.44 3.1947-5.4599-4.9362-0.4475-10.013 0.80645-14.567 1.5884 0.74941 3.5039 7.0968 5.9527 11.372 3.8715z" fill="url(#s)"/>
  <path transform="matrix(1.2341 0 0 1.7605 -13.024 364.9)" d="m171.13 119.38c0 8.4012-6.5267 15.212-14.578 15.212s-14.578-6.8105-14.578-15.212 6.5267-15.212 14.578-15.212 14.578 6.8105 14.578 15.212z" fill="#f9f9f9"/>
  <path transform="matrix(.71746 0 0 1.1125 59.533 441.69)" d="m171.13 119.38c0 8.4012-6.5267 15.212-14.578 15.212s-14.578-6.8105-14.578-15.212 6.5267-15.212 14.578-15.212 14.578 6.8105 14.578 15.212z"/>
  <path d="m175.16 588.05c2.202-1.0367 3.3168-3.1891 2.7792-5.0618-4.2943-0.41488-8.7113 0.74764-12.672 1.4726 0.65197 3.2484 6.174 5.5187 9.8931 3.5892z" fill="url(#r)"/>
  <path transform="matrix(1.471 0 0 2.0833 -81.059 403.33)" d="m171.13 119.38c0 8.4012-6.5267 15.212-14.578 15.212s-14.578-6.8105-14.578-15.212 6.5267-15.212 14.578-15.212 14.578 6.8105 14.578 15.212z"/>
  <path transform="matrix(.9058 0 0 .5 6.7943 613.89)" d="m171.13 119.38c0 8.4012-6.5267 15.212-14.578 15.212s-14.578-6.8105-14.578-15.212 6.5267-15.212 14.578-15.212 14.578 6.8105 14.578 15.212z" fill="url(#j)"/>
 </g>
 <g transform="translate(-93.236 -97.829)">
  <path transform="matrix(.82542 0 -.16994 .18042 308.87 648.62)" d="m259.87 144.73c0 47.607-38.877 86.2-86.833 86.2s-86.833-38.593-86.833-86.2 38.877-86.2 86.833-86.2 86.833 38.593 86.833 86.2z" filter="url(#c)" opacity=".77"/>
  <path transform="translate(247.25 455.3)" d="m259.87 144.73c0 47.607-38.877 86.2-86.833 86.2s-86.833-38.593-86.833-86.2 38.877-86.2 86.833-86.2 86.833 38.593 86.833 86.2z" fill="#00f"/>
  <path transform="translate(247.25 455.3)" d="m259.87 144.73c0 47.607-38.877 86.2-86.833 86.2s-86.833-38.593-86.833-86.2 38.877-86.2 86.833-86.2 86.833 38.593 86.833 86.2z" fill="url(#b)"/>
  <path d="m422.79 522.81c-16.973 0.16673-35.786 5.213-47.219 18.188 11.412 42.172 65.822 66.537 104.44 44.969 4.8731-2.7662 11.399-5.548 14.156-10.031-8.5989-30.8-39.239-54.038-71.375-53.125z" fill="url(#ai)"/>
  <path d="m371.8 541.37c1.3659-1.2594 1.863-2.907 6.3486-5.1402 2.2321-0.90668 4.5875-1.0788 6.8184-1.8669 2.6983 0.0502 4.4153-0.31097 6.3955 0.0733 0.98148-0.46133 2.7915 0.17151 3.8237-0.20071 3.8254 0.81563 4.4659 3.1563 1.0887 2.6768l-1.0084-0.44818c-0.99902 0.34724-2.7471-0.15515-3.7055 0.26981-2.7648-0.46152-3.2488 0.0598-5.836 0.15657-2.2899 0.72722-4.5742 1.075-6.8537 1.8784-3.8502 1.4383-4.9353 3.1292-7.4661 5.4304-1.419 2.9105-3.6013-0.36693 0.39469-2.8293z"/>
  <path transform="matrix(1.4185 0 0 1.899 167.52 342.55)" d="m171.13 119.38c0 8.4012-6.5267 15.212-14.578 15.212s-14.578-6.8105-14.578-15.212 6.5267-15.212 14.578-15.212 14.578 6.8105 14.578 15.212z" fill="#f9f9f9"/>
  <g transform="translate(8.9636 -9.8599)">
   <path transform="matrix(.8247 0 0 1.2 251.65 426.57)" d="m171.13 119.38c0 8.4012-6.5267 15.212-14.578 15.212s-14.578-6.8105-14.578-15.212 6.5267-15.212 14.578-15.212 14.578 6.8105 14.578 15.212z"/>
   <path d="m384.56 584.45c2.5312-1.1182 3.8126-3.44 3.1947-5.4599-4.9362-0.4475-10.013 0.80645-14.567 1.5884 0.74941 3.5039 7.0968 5.9527 11.372 3.8715z" fill="url(#g)"/>
  </g>
  <path transform="matrix(1.2341 0 0 1.7605 254.09 361.31)" d="m171.13 119.38c0 8.4012-6.5267 15.212-14.578 15.212s-14.578-6.8105-14.578-15.212 6.5267-15.212 14.578-15.212 14.578 6.8105 14.578 15.212z" fill="#f9f9f9"/>
  <g transform="translate(7.1709 -8.0672)">
   <path transform="matrix(.71746 0 0 1.1125 326.65 438.1)" d="m171.13 119.38c0 8.4012-6.5267 15.212-14.578 15.212s-14.578-6.8105-14.578-15.212 6.5267-15.212 14.578-15.212 14.578 6.8105 14.578 15.212z"/>
   <path d="m442.27 584.47c2.202-1.0367 3.3168-3.1891 2.7792-5.0618-4.2943-0.41488-8.7113 0.74764-12.672 1.4726 0.65197 3.2484 6.174 5.5187 9.8931 3.5892z" fill="url(#h)"/>
  </g>
  <g transform="matrix(.81744 0 0 -1.4215 69.802 1230.7)">
   <path d="m394.4 414.6 20.616 10.756 12.997 1.7927 9.4118-1.3445 10.756-7.1709 6.2745-8.0672-13.894 4.93h-36.302z" fill="#fff" stroke="#000"/>
   <path d="m382.14 406.85c4.7732 2.7244 6.9301 4.2637 11.772 6.8365 4.3911 2.6928 12.217 4.9249 16.9 7.0067 4.7724 1.3642 8.4106 2.5815 14.626 2.9358 4.8604-0.1045 7.7267-1.2237 12.762-1.8729 10.073-4.2681 13.044-9.5479 18.684-14.238 1.9112-0.84205 4.1449-5.0753 4.6938-4.8376-0.81623 1.8702 4.2757 2.7518 1.0002 4.0471-5.749 5.1504-13.056 8.0794-20.149 10.531-5.5563 0.87298-8.6945 2.2896-13.203 2.0433-5.1093 0.0457-10.246 0.23982-15.338-0.17814-4.2107-1.0411-11.237-1.2284-15.265-2.8279-3.3527-1.6272-13.357-2.1846-16.08-4.7761-2.9621-0.60681-9.9556-6.7408-5.933-7.0131 3.5771 1.3587 20.17 6.2873 23.885 7.4749 6.0245 2.0279 7.3432 2.1889 12.924 2.6926 5.3602 0.77893 10.796 0.21374 16.189 0.36146 3.8725-0.0167 9.0706-0.55459 12.507-2.2304 6.5006-2.3555 12.146-4.4159 17.452-9.1973 7.2397-4.6818 9.9986-8.0243 8.8704-3.4841-1.2156 2.539-6.5853 8.6546-8.6434 10.602-5.8306 4.7811-11.015 10.4-17.452 14.408-3.4473 2.1666-7.5468 3.2582-11.613 2.8081-5.57-9e-3 -11.411 0.43988-16.638-1.8746-5.6067-1.1375-10.656-3.9415-15.959-5.9663-2.986-1.5009-5.7681-3.3369-8.8625-4.635-3.3264-1.7316-6.8284-3.2988-9.8611-5.4807-1.2257-1.6864 0.88433-4.1584 2.7312-3.1349z"/>
  </g>
  <path d="m430.51 544.95c1.3659-1.2594 1.863-2.907 6.3486-5.1402 2.2321-0.90668 4.5875-1.0788 6.8184-1.8669 2.6983 0.0502 4.4153-0.31097 6.3955 0.0733 0.98148-0.46133 2.7915 0.17151 3.8237-0.20071 3.8254 0.81563 4.4659 3.1563 1.0887 2.6768l-1.0084-0.44818c-0.99902 0.34724-2.7471-0.15515-3.7055 0.26981-2.7648-0.46152-3.2488 0.0598-5.836 0.15657-2.2899 0.72722-4.5742 1.075-6.8537 1.8784-3.8502 1.4383-4.9353 3.1292-7.4661 5.4304-1.419 2.9105-3.6013-0.36693 0.39469-2.8293z"/>
 </g>
 <g transform="translate(-53.305 -134.59)">
  <path transform="matrix(.82542 0 -.16994 .18042 33.79 889.47)" d="m259.87 144.73c0 47.607-38.877 86.2-86.833 86.2s-86.833-38.593-86.833-86.2 38.877-86.2 86.833-86.2 86.833 38.593 86.833 86.2z" filter="url(#c)" opacity=".77"/>
  <path transform="translate(-27.824 696.15)" d="m259.87 144.73c0 47.607-38.877 86.2-86.833 86.2s-86.833-38.593-86.833-86.2 38.877-86.2 86.833-86.2 86.833 38.593 86.833 86.2z" fill="#00f"/>
  <path transform="translate(-27.824 696.15)" d="m259.87 144.73c0 47.607-38.877 86.2-86.833 86.2s-86.833-38.593-86.833-86.2 38.877-86.2 86.833-86.2 86.833 38.593 86.833 86.2z" fill="url(#b)"/>
  <path d="m147.71 763.66c-16.973 0.16673-35.786 5.213-47.219 18.188 11.412 42.172 65.822 66.537 104.44 44.969 4.8731-2.7662 11.399-5.548 14.156-10.031-8.5989-30.8-39.239-54.038-71.375-53.125z" fill="url(#p)"/>
  <path d="m107.76 779.55c1.7316-0.67323 2.7964-2.0253 7.7878-2.465 2.4091-0.0284 4.6645 0.67204 7.0291 0.75363 2.4934 1.0327 4.2236 1.3239 5.9265 2.4051 1.0822-0.0708 2.5358 1.1796 3.6327 1.2103 3.2629 2.157 3.0038 4.5698 0.0353 2.8895l-0.77491-0.78565c-1.0568-0.0418-2.5005-1.1482-3.5478-1.1028-2.405-1.4398-3.046-1.1314-5.4897-1.9867-2.3973-0.15979-4.6506-0.67075-7.0661-0.75579-4.1095-0.0679-5.7374 1.1095-8.9341 2.3268-2.3844 2.1908-3.2182-1.6575 1.4012-2.4894z"/>
  <path transform="matrix(1.4185 0 0 1.899 -103.76 586.57)" d="m171.13 119.38c0 8.4012-6.5267 15.212-14.578 15.212s-14.578-6.8105-14.578-15.212 6.5267-15.212 14.578-15.212 14.578 6.8105 14.578 15.212z" fill="#f9f9f9"/>
  <g transform="translate(-258.51 248.74)">
   <path transform="matrix(.8247 0 0 1.2 251.65 426.57)" d="m171.13 119.38c0 8.4012-6.5267 15.212-14.578 15.212s-14.578-6.8105-14.578-15.212 6.5267-15.212 14.578-15.212 14.578 6.8105 14.578 15.212z"/>
   <path d="m384.56 584.45c2.5312-1.1182 3.8126-3.44 3.1947-5.4599-4.9362-0.4475-10.013 0.80645-14.567 1.5884 0.74941 3.5039 7.0968 5.9527 11.372 3.8715z" fill="url(#g)"/>
  </g>
  <path transform="matrix(1.2341 0 0 1.7605 -20.988 602.16)" d="m171.13 119.38c0 8.4012-6.5267 15.212-14.578 15.212s-14.578-6.8105-14.578-15.212 6.5267-15.212 14.578-15.212 14.578 6.8105 14.578 15.212z" fill="#f9f9f9"/>
  <g transform="translate(-275.51 246.73)">
   <path transform="matrix(.71746 0 0 1.1125 326.65 438.1)" d="m171.13 119.38c0 8.4012-6.5267 15.212-14.578 15.212s-14.578-6.8105-14.578-15.212 6.5267-15.212 14.578-15.212 14.578 6.8105 14.578 15.212z"/>
   <path d="m442.27 584.47c2.202-1.0367 3.3168-3.1891 2.7792-5.0618-4.2943-0.41488-8.7113 0.74764-12.672 1.4726 0.65197 3.2484 6.174 5.5187 9.8931 3.5892z" fill="url(#h)"/>
  </g>
  <path d="m159.23 785.8c1.3659-1.2594 1.863-2.907 6.3486-5.1402 2.2321-0.90668 4.5875-1.0788 6.8184-1.8669 2.6983 0.0502 4.4153-0.31097 6.3955 0.0733 0.98148-0.46133 2.7915 0.17151 3.8237-0.20071 3.8254 0.81563 4.4659 3.1563 1.0887 2.6768l-1.0084-0.44818c-0.99902 0.34724-2.7471-0.15515-3.7055 0.26981-2.7648-0.46152-3.2488 0.0598-5.836 0.15657-2.2899 0.72722-4.5742 1.075-6.8537 1.8784-3.8502 1.4383-4.9353 3.1292-7.4661 5.4304-1.419 2.9105-3.6013-0.36693 0.39469-2.8293z"/>
  <path d="m112.87 875.5h65.08c3.5245 0 3.5245 10.192 0 10.192h-65.08c-3.5245 0-3.5245-10.192 0-10.192z" stroke="#000" stroke-width="4.2169"/>
 </g>
 <g transform="translate(-96.368 -128.25)">
  <path transform="matrix(.82542 0 -.16994 .18042 308.87 884.4)" d="m259.87 144.73c0 47.607-38.877 86.2-86.833 86.2s-86.833-38.593-86.833-86.2 38.877-86.2 86.833-86.2 86.833 38.593 86.833 86.2z" filter="url(#c)" opacity=".77"/>
  <path transform="translate(247.25 691.08)" d="m250.36 144.73c-3.1691 18.451-29.369 86.2-77.326 86.2s-70.988-61.41-74.791-87.467c-6.8752-47.108-13.728-77.064 74.157-77.96 96.126-0.97966 86.019 32.308 77.96 79.228z" fill="#00f"/>
  <path transform="translate(247.25 691.08)" d="m234.51 144.73c0 47.607-12.256 81.129-60.213 81.129s-51.339-29.719-66.551-79.861c-13.821-45.556 17.327-77.96 65.283-77.96s61.481 29.086 61.481 76.692z" fill="url(#b)"/>
  <path transform="matrix(-.39085 1.2599 -2.2215 -.56792 711.86 690.96)" d="m171.13 119.38c0 8.4012-6.5267 15.212-14.578 15.212s-14.578-6.8105-14.578-15.212 6.5267-15.212 14.578-15.212 14.578 6.8105 14.578 15.212z" fill="#f9f9f9"/>
  <path transform="matrix(.49685 1.1846 -1.9778 .79276 622.41 536.19)" d="m171.13 119.38c0 8.4012-6.5267 15.212-14.578 15.212s-14.578-6.8105-14.578-15.212 6.5267-15.212 14.578-15.212 14.578 6.8105 14.578 15.212z" fill="#f9f9f9"/>
  <g transform="matrix(.38103 -1.2342 1.2342 .38103 -478.2 1144.9)">
   <path transform="matrix(.71746 0 0 1.1125 326.65 438.1)" d="m171.13 119.38c0 8.4012-6.5267 15.212-14.578 15.212s-14.578-6.8105-14.578-15.212 6.5267-15.212 14.578-15.212 14.578 6.8105 14.578 15.212z"/>
   <path d="m442.27 584.47c2.202-1.0367 3.3168-3.1891 2.7792-5.0618-4.2943-0.41488-8.7113 0.74764-12.672 1.4726 0.65197 3.2484 6.174 5.5187 9.8931 3.5892z" fill="url(#h)"/>
  </g>
  <g transform="matrix(.47685 1.1129 -1.1129 .47685 910.11 122.95)">
   <path transform="matrix(.8247 0 0 1.2 251.65 426.57)" d="m171.13 119.38c0 8.4012-6.5267 15.212-14.578 15.212s-14.578-6.8105-14.578-15.212 6.5267-15.212 14.578-15.212 14.578 6.8105 14.578 15.212z"/>
   <path d="m384.56 584.45c2.5312-1.1182 3.8126-3.44 3.1947-5.4599-4.9362-0.4475-10.013 0.80645-14.567 1.5884 0.74941 3.5039 7.0968 5.9527 11.372 3.8715z" fill="url(#g)"/>
  </g>
  <path d="m404.96 887.73h30.423c1.6476 0 1.6476 11.234 0 11.234h-30.423c-1.6476 0-1.6476-11.234 0-11.234z" stroke="#000" stroke-width="3.027"/>
 </g>
 <g transform="translate(-76.436 -57.264)">
  <path transform="matrix(.82542 0 -.16994 .18042 512.89 192.05)" d="m259.87 144.73c0 47.607-38.877 86.2-86.833 86.2s-86.833-38.593-86.833-86.2 38.877-86.2 86.833-86.2 86.833 38.593 86.833 86.2z" filter="url(#c)" opacity=".77"/>
  <path transform="translate(451.28 -1.2676)" d="m259.87 144.73c0 47.607-38.877 86.2-86.833 86.2s-86.833-38.593-86.833-86.2 38.877-86.2 86.833-86.2 86.833 38.593 86.833 86.2z" fill="#00f"/>
  <path transform="translate(451.28 -1.2676)" d="m259.87 144.73c0 47.607-38.877 86.2-86.833 86.2s-86.833-38.593-86.833-86.2 38.877-86.2 86.833-86.2 86.833 38.593 86.833 86.2z" fill="url(#b)"/>
  <path d="m626.82 66.242c-16.973 0.16673-35.786 5.213-47.219 18.188 11.412 42.172 65.822 66.537 104.44 44.969 4.8731-2.7662 11.399-5.548 14.156-10.031-8.5989-30.8-39.239-54.038-71.375-53.125z" fill="url(#ab)"/>
  <path d="m568.74 114.16c1.9493-1.5253 3.9463-3.005 5.8508-4.5957 1.7406-1.6657 3.8666-2.6941 5.6498-4.2491 1.654-1.3252 3.16-2.7932 4.7293-4.2076 0.74214-0.79082 1.5573-1.5179 2.3796-2.2445 2.6965-2.3617 4.5086-0.4418 1.8121 1.9199-0.80062 0.69109-1.5513 1.4126-2.2855 2.161-1.6609 1.4881-3.2528 3.0419-4.999 4.4412-1.8605 1.5202-3.8556 2.6856-5.6784 4.2728-2.2137 1.8226-4.4918 3.5808-6.7825 5.2774-2.9469 1.8892-3.6231-0.88634-0.67619-2.7755z"/>
  <path d="m676.31 107.48c-2.1611-1.2066-4.3623-2.3608-6.4892-3.639-1.9766-1.3775-4.2357-2.0659-6.2373-3.3275-1.8385-1.0544-3.5527-2.2727-5.3213-3.4284-0.85517-0.66694-1.7726-1.2598-2.6971-1.8509-3.0283-1.9178-4.5228 0.25841-1.4945 2.1763 0.89757 0.55942 1.7505 1.1566 2.5912 1.7829 1.8704 1.2143 3.6828 2.5042 5.6238 3.6177 2.0726 1.2153 4.2235 2.0592 6.2691 3.3465 2.4682 1.4596 4.99 2.8457 7.5149 4.1689 3.2029 1.4123 3.4432-1.4342 0.24031-2.8466z"/>
  <path transform="matrix(1.2319 0 0 1.6042 407.35 -63.274)" d="m171.13 119.38c0 8.4012-6.5267 15.212-14.578 15.212s-14.578-6.8105-14.578-15.212 6.5267-15.212 14.578-15.212 14.578 6.8105 14.578 15.212z" fill="#f9f9f9"/>
  <g transform="matrix(.66459 0 0 1 205.75 11.409)">
   <path transform="matrix(.84258 0 0 .84258 471.14 23.755)" d="m171.13 119.38c0 8.4012-6.5267 15.212-14.578 15.212s-14.578-6.8105-14.578-15.212 6.5267-15.212 14.578-15.212 14.578 6.8105 14.578 15.212z"/>
   <path d="m605.66 134.6c2.5861-0.78514 3.8952-2.4153 3.2639-3.8335-5.0432-0.3142-10.23 0.56622-14.882 1.1152 0.76566 2.4602 7.2506 4.1795 11.618 2.7182z" fill="url(#d)"/>
  </g>
  <path transform="matrix(1.1232 0 0 1.6042 474.96 -66.18)" d="m171.13 119.38c0 8.4012-6.5267 15.212-14.578 15.212s-14.578-6.8105-14.578-15.212 6.5267-15.212 14.578-15.212 14.578 6.8105 14.578 15.212z" fill="#f9f9f9"/>
  <g transform="matrix(.66459 0 0 1 213.68 10.141)">
   <path transform="matrix(.84258 0 0 .84258 517.44 22.039)" d="m171.13 119.38c0 8.4012-6.5267 15.212-14.578 15.212s-14.578-6.8105-14.578-15.212 6.5267-15.212 14.578-15.212 14.578 6.8105 14.578 15.212z"/>
   <path d="m653.23 132.89c2.5861-0.78514 3.8952-2.4153 3.2639-3.8335-5.0432-0.3142-10.23 0.56622-14.882 1.1152 0.76566 2.4602 7.2506 4.1795 11.618 2.7182z" fill="url(#e)"/>
  </g>
  <path d="m595.28 191.16c5.4606-2.889 8.7708-3.9915 10.387-5.1138 2.1305-1.5295 8.2197-3.6296 10.509-4.9146 2.3432-1.3501 4.8567-2.7394 7.3995-3.5478 1.8673-0.53413 3.8334-0.90802 5.582-1.7861 2.137-1.134 4.5001-1.518 6.8763-1.751 3.0978-0.0207 9.0804 0.62419 11.588 2.3389 1.8682 1.5222 3.3465 3.1176 4.9676 4.9022 1.609 1.8093 2.8677 3.7876 4.3445 5.7135 0.91932 1.3331 2.2828 3.5804 1.8065 4.9717 1.6796 3.1677-4.8601 5.0676-6.5397 1.8999-0.61556-1.2066-2.1896-1.3273-2.6691-2.5862-1.2787-1.8506-3.1287-2.9128-4.5035-4.6938-1.3682-1.5164-3.8431-1.9044-5.4059-3.216-1.4454-0.29816-2.565-0.60776-4.3726-0.79671-1.815 0.1687-2.0298 0.41626-4.9214 0.19979-1.9833 0.87421-3.1102 0.24329-5.217 0.74544-2.2166 0.70427-2.8016 0.28558-6.612 1.0772-2.1784 1.2226-7.6774 3.1029-9.7083 4.557-2.4817 1.6072-7.1828 2.6474-13.67 5.8034-10.082 2.6937-7.8637 2.6937 0.15846-3.8029z" stroke="#000" stroke-width="3"/>
 </g>
 <g transform="translate(-70.623 -75.011)">
  <path transform="matrix(.82542 0 -.16994 .18042 514.69 419.73)" d="m259.87 144.73c0 47.607-38.877 86.2-86.833 86.2s-86.833-38.593-86.833-86.2 38.877-86.2 86.833-86.2 86.833 38.593 86.833 86.2z" filter="url(#c)" opacity=".77"/>
  <path transform="translate(453.07 226.41)" d="m259.87 144.73c0 47.607-38.877 86.2-86.833 86.2s-86.833-38.593-86.833-86.2 38.877-86.2 86.833-86.2 86.833 38.593 86.833 86.2z" fill="#00f"/>
  <path transform="translate(453.07 226.41)" d="m259.87 144.73c0 47.607-38.877 86.2-86.833 86.2s-86.833-38.593-86.833-86.2 38.877-86.2 86.833-86.2 86.833 38.593 86.833 86.2z" fill="url(#b)"/>
  <path d="m628.61 293.92c-16.973 0.16673-35.786 5.213-47.219 18.188 11.412 42.172 65.822 66.537 104.44 44.969 4.8731-2.7662 11.399-5.548 14.156-10.031-8.5989-30.8-39.239-54.038-71.375-53.125z" fill="url(#u)"/>
  <path d="m562.47 329.28c1.9493-1.5253 3.9463-3.005 5.8508-4.5957 1.7406-1.6657 3.8666-2.6941 5.6498-4.2491 1.654-1.3252 3.16-2.7932 4.7293-4.2076 0.74214-0.79082 1.5573-1.5179 2.3796-2.2445 2.6965-2.3617 4.5086-0.4418 1.8121 1.9199-0.80062 0.69109-1.5513 1.4126-2.2855 2.161-1.6609 1.4881-3.2528 3.0419-4.999 4.4412-1.8605 1.5202-3.8556 2.6856-5.6784 4.2728-2.2137 1.8226-4.4918 3.5808-6.7825 5.2774-2.9469 1.8892-3.6231-0.88634-0.67619-2.7755z"/>
  <path d="m671.83 330.67c-2.1611-1.2066-4.3623-2.3608-6.4892-3.639-1.9766-1.3775-4.2357-2.0659-6.2373-3.3275-1.8385-1.0544-3.5527-2.2727-5.3213-3.4284-0.85517-0.66694-1.7726-1.2598-2.6971-1.8509-3.0283-1.9178-4.5228 0.25841-1.4945 2.1763 0.89757 0.55943 1.7505 1.1566 2.5912 1.7829 1.8704 1.2143 3.6828 2.5042 5.6238 3.6177 2.0726 1.2153 4.2235 2.0592 6.2691 3.3465 2.4682 1.4596 4.99 2.8457 7.5149 4.1689 3.2029 1.4123 3.4432-1.4342 0.24031-2.8466z"/>
  <path transform="matrix(1.2319 0 0 1.6042 401.08 151.85)" d="m171.13 119.38c0 8.4012-6.5267 15.212-14.578 15.212s-14.578-6.8105-14.578-15.212 6.5267-15.212 14.578-15.212 14.578 6.8105 14.578 15.212z" fill="#f9f9f9"/>
  <g transform="matrix(.66459 0 0 1 187.83 211.3)">
   <path transform="matrix(.84258 0 0 .84258 471.14 23.755)" d="m171.13 119.38c0 8.4012-6.5267 15.212-14.578 15.212s-14.578-6.8105-14.578-15.212 6.5267-15.212 14.578-15.212 14.578 6.8105 14.578 15.212z"/>
   <path d="m605.66 134.6c2.5861-0.78514 3.8952-2.4153 3.2639-3.8335-5.0432-0.3142-10.23 0.56622-14.882 1.1152 0.76566 2.4602 7.2506 4.1795 11.618 2.7182z" fill="url(#d)"/>
  </g>
  <path transform="matrix(1.1232 0 0 1.6042 470.48 157.01)" d="m171.13 119.38c0 8.4012-6.5267 15.212-14.578 15.212s-14.578-6.8105-14.578-15.212 6.5267-15.212 14.578-15.212 14.578 6.8105 14.578 15.212z" fill="#f9f9f9"/>
  <g transform="matrix(.66459 0 0 1 208.3 219.89)">
   <path transform="matrix(.84258 0 0 .84258 517.44 22.039)" d="m171.13 119.38c0 8.4012-6.5267 15.212-14.578 15.212s-14.578-6.8105-14.578-15.212 6.5267-15.212 14.578-15.212 14.578 6.8105 14.578 15.212z"/>
   <path d="m653.23 132.89c2.5861-0.78514 3.8952-2.4153 3.2639-3.8335-5.0432-0.3142-10.23 0.56622-14.882 1.1152 0.76566 2.4602 7.2506 4.1795 11.618 2.7182z" fill="url(#e)"/>
  </g>
  <path transform="matrix(.66459 0 0 .92591 500.33 305.21)" d="m171.13 119.38c0 8.4012-6.5267 15.212-14.578 15.212s-14.578-6.8105-14.578-15.212 6.5267-15.212 14.578-15.212 14.578 6.8105 14.578 15.212z"/>
 </g>
 <g transform="translate(-70.623 -88.955)">
  <path transform="matrix(.82542 0 -.16994 .18042 514.69 642.83)" d="m259.87 144.73c0 47.607-38.877 86.2-86.833 86.2s-86.833-38.593-86.833-86.2 38.877-86.2 86.833-86.2 86.833 38.593 86.833 86.2z" filter="url(#c)" opacity=".77"/>
  <path transform="translate(453.07 449.51)" d="m259.87 144.73c0 47.607-38.877 86.2-86.833 86.2s-86.833-38.593-86.833-86.2 38.877-86.2 86.833-86.2 86.833 38.593 86.833 86.2z" fill="#00f"/>
  <path transform="translate(453.07 449.51)" d="m259.87 144.73c0 47.607-38.877 86.2-86.833 86.2s-86.833-38.593-86.833-86.2 38.877-86.2 86.833-86.2 86.833 38.593 86.833 86.2z" fill="url(#b)"/>
  <path d="m628.61 517.02c-16.973 0.16673-35.786 5.213-47.219 18.188 11.412 42.172 65.822 66.537 104.44 44.969 4.8731-2.7662 11.399-5.548 14.156-10.031-8.5989-30.8-39.239-54.038-71.375-53.125z" fill="url(#q)"/>
  <path d="m562.47 552.39c1.9493-1.5253 3.9463-3.005 5.8508-4.5957 1.7406-1.6657 3.8666-2.6941 5.6498-4.2491 1.654-1.3252 3.16-2.7932 4.7293-4.2076 0.74214-0.79082 1.5573-1.5179 2.3796-2.2445 2.6965-2.3617 4.5086-0.4418 1.8121 1.9199-0.80062 0.69109-1.5513 1.4126-2.2855 2.161-1.6609 1.4881-3.2528 3.0419-4.999 4.4412-1.8605 1.5202-3.8556 2.6856-5.6784 4.2728-2.2137 1.8226-4.4918 3.5808-6.7825 5.2774-2.9469 1.8892-3.6231-0.88634-0.67619-2.7755z"/>
  <path d="m671.83 553.78c-2.1611-1.2066-4.3623-2.3608-6.4892-3.639-1.9766-1.3775-4.2357-2.0659-6.2373-3.3275-1.8385-1.0544-3.5527-2.2727-5.3213-3.4284-0.85517-0.66694-1.7726-1.2598-2.6971-1.8509-3.0283-1.9178-4.5228 0.25841-1.4945 2.1763 0.89757 0.55943 1.7505 1.1566 2.5912 1.7829 1.8704 1.2143 3.6828 2.5042 5.6238 3.6177 2.0726 1.2153 4.2235 2.0592 6.2691 3.3465 2.4682 1.4596 4.99 2.8457 7.5149 4.1689 3.2029 1.4123 3.4432-1.4342 0.24031-2.8466z"/>
  <path transform="matrix(1.2319 0 0 1.6042 401.08 374.96)" d="m171.13 119.38c0 8.4012-6.5267 15.212-14.578 15.212s-14.578-6.8105-14.578-15.212 6.5267-15.212 14.578-15.212 14.578 6.8105 14.578 15.212z" fill="#f9f9f9"/>
  <g transform="matrix(.66459 0 0 1 198.58 436.19)">
   <path transform="matrix(.84258 0 0 .84258 471.14 23.755)" d="m171.13 119.38c0 8.4012-6.5267 15.212-14.578 15.212s-14.578-6.8105-14.578-15.212 6.5267-15.212 14.578-15.212 14.578 6.8105 14.578 15.212z"/>
   <path d="m605.66 134.6c2.5861-0.78514 3.8952-2.4153 3.2639-3.8335-5.0432-0.3142-10.23 0.56622-14.882 1.1152 0.76566 2.4602 7.2506 4.1795 11.618 2.7182z" fill="url(#d)"/>
  </g>
  <path transform="matrix(1.1232 0 0 1.6042 470.48 380.12)" d="m171.13 119.38c0 8.4012-6.5267 15.212-14.578 15.212s-14.578-6.8105-14.578-15.212 6.5267-15.212 14.578-15.212 14.578 6.8105 14.578 15.212z" fill="#f9f9f9"/>
  <g transform="matrix(.66459 0 0 1 219.06 444.79)">
   <path transform="matrix(.84258 0 0 .84258 517.44 22.039)" d="m171.13 119.38c0 8.4012-6.5267 15.212-14.578 15.212s-14.578-6.8105-14.578-15.212 6.5267-15.212 14.578-15.212 14.578 6.8105 14.578 15.212z"/>
   <path d="m653.23 132.89c2.5861-0.78514 3.8952-2.4153 3.2639-3.8335-5.0432-0.3142-10.23 0.56622-14.882 1.1152 0.76566 2.4602 7.2506 4.1795 11.618 2.7182z" fill="url(#e)"/>
  </g>
  <path d="m584.63 618.83c6.059-0.13054 12.055-0.0724 18.06 0.77228 5.5741 1.0215 10.754 3.2116 16.041 5.1309 3.8909 1.7761 7.5175 4.0753 11.095 6.4014 3.1016 1.8683 6.4044 3.3681 9.5714 5.1172 3.2166 1.5302 6.5738 2.8638 9.9583 4.0071 2.4418 0.72941 4.9833 0.94161 7.5094 1.1506 7.1452 0.60668 6.2872 10.711-0.85799 10.105-3.3576-0.29122-6.7268-0.62961-9.9544-1.6672-3.9592-1.3831-7.9128-2.9021-11.659-4.7743-3.3086-1.9664-6.9474-3.38-10.182-5.4926-2.8565-1.9721-5.9016-3.6964-8.9621-5.3218-4.6205-1.6974-9.1318-3.6219-13.986-4.6157-5.5296-0.79431-11.052-0.76799-16.634-0.67149-7.1709 0-7.1709-10.141 0-10.141z" stroke="#000" stroke-width="3"/>
 </g>
 <g transform="translate(-80.329 -116.84)">
  <path transform="matrix(.82542 0 -.16994 .18042 521.86 868.71)" d="m259.87 144.73c0 47.607-38.877 86.2-86.833 86.2s-86.833-38.593-86.833-86.2 38.877-86.2 86.833-86.2 86.833 38.593 86.833 86.2z" filter="url(#c)" opacity=".77"/>
  <path transform="translate(460.24 675.39)" d="m259.87 144.73c0 47.607-38.877 86.2-86.833 86.2s-86.833-38.593-86.833-86.2 38.877-86.2 86.833-86.2 86.833 38.593 86.833 86.2z" fill="#00f"/>
  <path transform="translate(460.24 675.39)" d="m259.87 144.73c0 47.607-38.877 86.2-86.833 86.2s-86.833-38.593-86.833-86.2 38.877-86.2 86.833-86.2 86.833 38.593 86.833 86.2z" fill="url(#b)"/>
  <path d="m635.78 742.9c-16.973 0.16673-35.786 5.213-47.219 18.188 11.412 42.172 65.822 66.537 104.44 44.969 4.8731-2.7662 11.399-5.548 14.156-10.031-8.5989-30.8-39.239-54.038-71.375-53.125z" fill="url(#o)"/>
  <path d="m569.64 778.27c1.9493-1.5253 3.9463-3.005 5.8508-4.5957 1.7406-1.6657 3.8666-2.6941 5.6498-4.2491 1.654-1.3252 3.16-2.7932 4.7293-4.2076 0.74214-0.79082 1.5573-1.5179 2.3796-2.2445 2.6965-2.3617 4.5086-0.4418 1.8121 1.9199-0.80062 0.69109-1.5513 1.4126-2.2855 2.161-1.6609 1.4881-3.2528 3.0419-4.999 4.4412-1.8605 1.5202-3.8556 2.6856-5.6784 4.2728-2.2137 1.8226-4.4918 3.5808-6.7825 5.2774-2.9469 1.8892-3.6231-0.88634-0.67619-2.7755z"/>
  <path d="m679 779.66c-2.1611-1.2066-4.3623-2.3608-6.4892-3.639-1.9766-1.3775-4.2357-2.0659-6.2373-3.3275-1.8385-1.0544-3.5527-2.2727-5.3213-3.4284-0.85517-0.66694-1.7726-1.2598-2.6971-1.8509-3.0283-1.9178-4.5228 0.25841-1.4945 2.1763 0.89757 0.55943 1.7505 1.1566 2.5912 1.7829 1.8704 1.2143 3.6828 2.5042 5.6238 3.6177 2.0726 1.2153 4.2235 2.0592 6.2691 3.3465 2.4682 1.4596 4.99 2.8457 7.5149 4.1689 3.2029 1.4123 3.4432-1.4342 0.24031-2.8466z"/>
  <path transform="matrix(1.2319 0 0 1.6042 408.25 600.84)" d="m171.13 119.38c0 8.4012-6.5267 15.212-14.578 15.212s-14.578-6.8105-14.578-15.212 6.5267-15.212 14.578-15.212 14.578 6.8105 14.578 15.212z" fill="#f9f9f9"/>
  <g transform="matrix(.66459 0 0 1 202.17 674.62)">
   <path transform="matrix(.84258 0 0 .84258 471.14 23.755)" d="m171.13 119.38c0 8.4012-6.5267 15.212-14.578 15.212s-14.578-6.8105-14.578-15.212 6.5267-15.212 14.578-15.212 14.578 6.8105 14.578 15.212z"/>
   <path d="m605.66 134.6c2.5861-0.78514 3.8952-2.4153 3.2639-3.8335-5.0432-0.3142-10.23 0.56622-14.882 1.1152 0.76566 2.4602 7.2506 4.1795 11.618 2.7182z" fill="url(#d)"/>
  </g>
  <path transform="matrix(1.1232 0 0 1.6042 477.65 606)" d="m171.13 119.38c0 8.4012-6.5267 15.212-14.578 15.212s-14.578-6.8105-14.578-15.212 6.5267-15.212 14.578-15.212 14.578 6.8105 14.578 15.212z" fill="#f9f9f9"/>
  <g transform="matrix(.66459 0 0 1 217.26 668.88)">
   <path transform="matrix(.84258 0 0 .84258 517.44 22.039)" d="m171.13 119.38c0 8.4012-6.5267 15.212-14.578 15.212s-14.578-6.8105-14.578-15.212 6.5267-15.212 14.578-15.212 14.578 6.8105 14.578 15.212z"/>
   <path d="m653.23 132.89c2.5861-0.78514 3.8952-2.4153 3.2639-3.8335-5.0432-0.3142-10.23 0.56622-14.882 1.1152 0.76566 2.4602 7.2506 4.1795 11.618 2.7182z" fill="url(#e)"/>
  </g>
  <path d="m603.58 862.27c3.4982-3.3199 7.0269-6.4425 10.841-8.8866 3.625-2.0623 7.436-2.9007 11.212-4.0304 2.9092-0.51588 5.85-0.43728 8.7721-0.30956 2.4802-0.018 4.9469-0.46266 7.4229-0.61891 2.427-0.37261 4.8663-0.99051 7.2537-1.7882 1.6884-0.65841 3.2509-1.819 4.8032-2.9743 4.3963-3.2541 7.4948 5.98 3.0985 9.234-2.0681 1.5238-4.1598 3.0128-6.4176 3.8193-2.8091 0.89343-5.6633 1.6659-8.5218 2.0214-2.6363 0.0423-5.2688 0.7397-7.9139 0.61581-2.3738-0.20189-4.7697-0.0886-7.1394 0.11868-3.3079 0.97031-6.6329 1.6855-9.827 3.3909-3.518 2.2361-6.7394 5.1815-9.9708 8.2195-4.1952 3.7948-7.8086-5.0167-3.6134-8.8116z" stroke="#000" stroke-width="2.5044"/>
 </g>
 <g transform="translate(-33.255 -33.179)">
  <path transform="matrix(.82542 0 -.16994 .18042 21.345 996.55)" d="m259.87 144.73c0 47.607-38.877 86.2-86.833 86.2s-86.833-38.593-86.833-86.2 38.877-86.2 86.833-86.2 86.833 38.593 86.833 86.2z" filter="url(#c)" opacity=".77"/>
  <path transform="translate(-40.269 803.23)" d="m259.87 144.73c0 47.607-38.877 86.2-86.833 86.2s-86.833-38.593-86.833-86.2 38.877-86.2 86.833-86.2 86.833 38.593 86.833 86.2z" fill="#00f"/>
  <path transform="translate(-40.269 803.23)" d="m259.87 144.73c0 47.607-38.877 86.2-86.833 86.2s-86.833-38.593-86.833-86.2 38.877-86.2 86.833-86.2 86.833 38.593 86.833 86.2z" fill="url(#b)"/>
  <path d="m135.27 870.74c-16.973 0.16673-35.786 5.213-47.219 18.188 11.412 42.172 65.822 66.537 104.44 44.969 4.8731-2.7662 11.399-5.548 14.156-10.031-8.5989-30.801-39.239-54.038-71.375-53.125z" fill="url(#n)"/>
  <path d="m82.51232,890.18443c2.47387.076 4.95532.2183 7.43677.2156 2.40356-.1651 4.69513.406 7.06052.3532 2.11902.041 4.2157-.1225 6.32676-.2043 1.07641-.1323 2.16809-.169 3.26492-.2006 3.58342-.088 3.74624,2.5472.1628,2.6349-1.05748.018-2.09607.092-3.13917.1968-2.22858.08-4.44636.2542-6.68358.2112-2.40247-.023-4.68123-.4056-7.09761-.3533-2.86739-.017-5.74302-.1251-8.58897-.2885-3.47329-.4355-2.21573-3.0005 1.25755-2.565z"/>
  <path d="m167.85 895.43c-2.475-0.02-4.9601 0.026-7.4396-0.073-2.3954-0.2582-4.7074 0.2236-7.0689 0.079-2.119-0.041-4.2078-0.2859-6.314-0.4495-1.0705-0.174-2.1599-0.2531-3.2547-0.3272-3.5773-0.2267-3.8423 2.3999-0.26489 2.6267 1.056 0.059 2.0909 0.1732 3.1291 0.3183 2.2238 0.1663 4.4332 0.4266 6.6704 0.4703 2.4016 0.07 4.6934-0.2236 7.106-0.078 2.866 0.094 5.7436 0.098 8.5938 0.045 3.4875-0.3005 2.3304-2.9123-1.1571-2.6119z"/>
  <path transform="matrix(1.2319 0 0 1.6042 -96.745 729.57)" d="m171.13 119.38c0 8.4012-6.5267 15.212-14.578 15.212s-14.578-6.8105-14.578-15.212 6.5267-15.212 14.578-15.212 14.578 6.8105 14.578 15.212z" fill="#f9f9f9"/>
  <g transform="matrix(.66459 0 0 1 -308.2 790.81)">
   <path transform="matrix(.84258 0 0 .84258 471.14 23.755)" d="m171.13 119.38c0 8.4012-6.5267 15.212-14.578 15.212s-14.578-6.8105-14.578-15.212 6.5267-15.212 14.578-15.212 14.578 6.8105 14.578 15.212z"/>
   <path d="m605.66 134.6c2.5861-0.78514 3.8952-2.4153 3.2639-3.8335-5.0432-0.3142-10.23 0.56622-14.882 1.1152 0.76566 2.4602 7.2506 4.1795 11.618 2.7182z" fill="url(#d)"/>
  </g>
  <path transform="matrix(1.1232 0 0 1.6042 -22.864 733.84)" d="m171.13 119.38c0 8.4012-6.5267 15.212-14.578 15.212s-14.578-6.8105-14.578-15.212 6.5267-15.212 14.578-15.212 14.578 6.8105 14.578 15.212z" fill="#f9f9f9"/>
  <g transform="matrix(.66459 0 0 1 -282.35 794.92)">
   <path transform="matrix(.84258 0 0 .84258 517.44 22.039)" d="m171.13 119.38c0 8.4012-6.5267 15.212-14.578 15.212s-14.578-6.8105-14.578-15.212 6.5267-15.212 14.578-15.212 14.578 6.8105 14.578 15.212z"/>
   <path d="m653.23 132.89c2.5861-0.78514 3.8952-2.4153 3.2639-3.8335-5.0432-0.3142-10.23 0.56622-14.882 1.1152 0.76566 2.4602 7.2506 4.1795 11.618 2.7182z" fill="url(#e)"/>
  </g>
  <path transform="matrix(2.9467 0 0 2.0833 -329.71 747.56)" d="m171.13 119.38c0 8.4012-6.5267 15.212-14.578 15.212s-14.578-6.8105-14.578-15.212 6.5267-15.212 14.578-15.212 14.578 6.8105 14.578 15.212z"/>
  <path d="m117.42 966.48s5.8628-1.2677 8.1604-1.4261c2.8024-0.1933 5.9693-1.2241 6.0213 1.5845l0.23768 12.835c0.052 2.8086-2.2615 5.0706-5.0706 5.0706h-8.8735c-2.8091 0-5.0706-2.2615-5.0706-5.0706v-9.5073c0-2.8091 2.7879-3.1702 4.5952-3.486z" fill="#fff"/>
  <path d="m147.84 966.8s-5.8628-1.2677-8.1604-1.4261c-2.8024-0.1933-5.9693-1.2241-6.0213 1.5845l-0.23768 12.835c-0.052 2.8086 2.2615 5.0706 5.0706 5.0706h8.8735c2.8091 0 5.0706-2.2615 5.0706-5.0706v-9.5073c0-2.8091-2.7879-3.1702-4.5952-3.486z" fill="#fff"/>
 </g>
 <g transform="translate(-57.974 -123.18)">
  <path transform="matrix(.82542 0 -.16994 .18042 266 1091.6)" d="m259.87 144.73c0 47.607-38.877 86.2-86.833 86.2s-86.833-38.593-86.833-86.2 38.877-86.2 86.833-86.2 86.833 38.593 86.833 86.2z" filter="url(#c)" opacity=".77"/>
  <path transform="translate(204.39 898.31)" d="m259.87 144.73c0 47.607-38.877 86.2-86.833 86.2s-86.833-38.593-86.833-86.2 38.877-86.2 86.833-86.2 86.833 38.593 86.833 86.2z" fill="#00f"/>
  <path transform="translate(204.39 898.31)" d="m259.87 144.73c0 47.607-38.877 86.2-86.833 86.2s-86.833-38.593-86.833-86.2 38.877-86.2 86.833-86.2 86.833 38.593 86.833 86.2z" fill="url(#b)"/>
  <path d="m379.92 965.82c-16.973 0.16673-35.786 5.213-47.219 18.188 11.412 42.172 65.822 66.537 104.44 44.969 4.8731-2.7662 11.399-5.548 14.156-10.031-8.5989-30.801-39.239-54.038-71.375-53.125z" fill="url(#m)"/>
  <path d="m330.33604,987.79275c2.47387.076 4.95532.2183 7.43677.2156 2.40356-.1651 4.69513.406 7.06052.3532 2.11902.041 4.2157-.1225 6.32676-.2043 1.07641-.1323 2.16809-.169 3.26492-.2006 3.58342-.088 3.74624,2.5472.1628,2.6349-1.05748.018-2.09607.092-3.13917.1968-2.22858.08-4.44636.2542-6.68358.2112-2.40247-.023-4.68123-.4056-7.09761-.3533-2.86739-.017-5.74302-.1251-8.58897-.2885-3.47329-.4355-2.21573-3.0005 1.25756-2.565z"/>
  <path d="m415.67 993.04c-2.475-0.02-4.9601 0.026-7.4396-0.073-2.3954-0.2582-4.7074 0.2236-7.0689 0.079-2.119-0.041-4.2078-0.2859-6.314-0.4495-1.0705-0.174-2.1599-0.2531-3.2547-0.3272-3.5773-0.2267-3.8423 2.3999-0.26489 2.6267 1.056 0.059 2.0909 0.1732 3.1291 0.3183 2.2238 0.1663 4.4332 0.4266 6.6704 0.4703 2.4016 0.07 4.6934-0.2236 7.106-0.078 2.866 0.094 5.7436 0.098 8.5938 0.045 3.4875-0.3005 2.3304-2.9123-1.1571-2.6119z"/>
  <path transform="matrix(1.2319 0 0 1.6042 147.91 824.65)" d="m171.13 119.38c0 8.4012-6.5267 15.212-14.578 15.212s-14.578-6.8105-14.578-15.212 6.5267-15.212 14.578-15.212 14.578 6.8105 14.578 15.212z" fill="#f9f9f9"/>
  <g transform="matrix(.66459 0 0 1 -52.139 896.03)">
   <path transform="matrix(.84258 0 0 .84258 471.14 23.755)" d="m171.13 119.38c0 8.4012-6.5267 15.212-14.578 15.212s-14.578-6.8105-14.578-15.212 6.5267-15.212 14.578-15.212 14.578 6.8105 14.578 15.212z"/>
   <path d="m605.66 134.6c2.5861-0.78514 3.8952-2.4153 3.2639-3.8335-5.0432-0.3142-10.23 0.56622-14.882 1.1152 0.76566 2.4602 7.2506 4.1795 11.618 2.7182z" fill="url(#d)"/>
  </g>
  <path transform="matrix(1.3732 0 0 .85417 184.71 925.42)" d="m171.13 119.38c0 8.4012-6.5267 15.212-14.578 15.212s-14.578-6.8105-14.578-15.212 6.5267-15.212 14.578-15.212 14.578 6.8105 14.578 15.212z" fill="#f9f9f9"/>
  <g transform="matrix(.9484 0 0 .6662 -209.95 945.98)">
   <path transform="matrix(.84258 0 0 .84258 517.44 22.039)" d="m171.13 119.38c0 8.4012-6.5267 15.212-14.578 15.212s-14.578-6.8105-14.578-15.212 6.5267-15.212 14.578-15.212 14.578 6.8105 14.578 15.212z"/>
   <path d="m653.23 132.89c2.5861-0.78514 3.8952-2.4153 3.2639-3.8335-5.0432-0.3142-10.23 0.56622-14.882 1.1152 0.76566 2.4602 7.2506 4.1795 11.618 2.7182z" fill="url(#e)"/>
  </g>
  <path transform="matrix(2.9467 0 0 .9375 -82.516 982.27)" d="m171.13 119.38c0 8.4012-6.5267 15.212-14.578 15.212s-14.578-6.8105-14.578-15.212 6.5267-15.212 14.578-15.212 14.578 6.8105 14.578 15.212z"/>
  <path d="m361.79 1090.8s-2.8129 0.228-4.3986 0.3235c-1.481 0.089-2.8271 0.6014-3.1082-0.8554l-1.0009-5.1885c-0.28104-1.4568 0.80491-2.8198 2.2738-3.0291l4.64-0.6608c1.4689-0.2092 2.8199 0.8049 3.0291 2.2738l0.70809 4.9714c0.20921 1.4689-1.2217 1.8654-2.1432 2.1651z" fill="#fff"/>
  <path d="m367.3 1090.2s3.6512-0.1228 5.6571-0.5144c1.4562-0.2844 2.1127-0.8591 2.0712-2.3423l-0.11214-4.0062c-0.0415-1.4831-0.88206-3.4273-2.3613-3.312l-5.083 0.3961c-3.5329 0.2754-3.6225 1.4503-3.3912 2.9159l0.79228 5.0216c0.23123 1.4656 1.4725 1.6745 2.4271 1.8413z" fill="#fff"/>
  <path d="m383.1 1089.6s-2.8084-0.2782-4.3856-0.4674c-1.4731-0.177-2.8891 0.087-2.9054-1.3969l-0.058-5.2839c-0.0163-1.4835 1.2957-2.6306 2.7783-2.5742l4.6834 0.1787c1.4826 0.057 2.6307 1.2957 2.5742 2.7783l-0.19135 5.018c-0.0565 1.4826-1.5352 1.6171-2.4955 1.7474z" fill="#fff"/>
  <path d="m388.61 1090.1s3.6145 0.5314 5.658 0.5044c1.4836-0.02 2.2322-0.4679 2.4563-1.9346l0.6053-3.9618c0.2241-1.4667-0.25565-3.5298-1.7317-3.6806l-5.072-0.5182c-3.5253-0.3601-3.8233 0.7799-3.8576 2.2632l-0.11748 5.0824c-0.0343 1.4833 1.1497 1.9106 2.0592 2.2452z" fill="#fff"/>
  <path d="m399.18 1091.3s3.5252 0.9588 5.5574 1.1759c1.4754 0.1571 2.272-0.1983 2.6695-1.6278l1.0737-3.8612c0.3975-1.4295 0.16733-3.5351-1.2802-3.8609l-4.9739-1.1197c-3.4571-0.7782-3.889 0.3182-4.1 1.7868l-0.72304 5.032c-0.21103 1.4687 0.91356 2.0342 1.7766 2.4749z" fill="#fff"/>
  <path d="m351.78 1091s-2.0969 0.4236-3.2819 0.6378c-1.1069 0.1993-2.0742 0.706-2.4163-0.3654l-1.2185-3.8158c-0.34213-1.0714 0.35311-2.1946 1.44-2.4838l3.4334-0.9134c1.0869-0.289 2.1947 0.3532 2.4839 1.4401l0.97859 3.6787c0.28915 1.0868-0.75235 1.5136-1.4192 1.8218z" fill="#fff"/>
  <path d="m409.21 1092.8s2.6948 0.7329 4.2482 0.8989c1.1278 0.1201 1.7368-0.1516 2.0406-1.2443l0.82073-2.9516c0.30386-1.0927 0.12791-2.7023-0.97856-2.9513l-3.8022-0.8559c-2.6427-0.5949-2.9728 0.2432-3.1341 1.3658l-0.5527 3.8466c-0.16132 1.1227 0.69834 1.5549 1.358 1.8918z" fill="#fff"/>
 </g>
 <g transform="translate(-82.315 -100.36)">
  <path transform="matrix(.82542 0 -.16994 .18042 518.77 1071.9)" d="m259.87 144.73c0 47.607-38.877 86.2-86.833 86.2s-86.833-38.593-86.833-86.2 38.877-86.2 86.833-86.2 86.833 38.593 86.833 86.2z" filter="url(#c)" opacity=".77"/>
  <path transform="translate(457.16 878.59)" d="m259.87 144.73c0 47.607-38.877 86.2-86.833 86.2s-86.833-38.593-86.833-86.2 38.877-86.2 86.833-86.2 86.833 38.593 86.833 86.2z" fill="#00f"/>
  <path transform="translate(457.16 878.59)" d="m259.87 144.73c0 47.607-38.877 86.2-86.833 86.2s-86.833-38.593-86.833-86.2 38.877-86.2 86.833-86.2 86.833 38.593 86.833 86.2z" fill="url(#b)"/>
  <path d="m627.15 946.09c-17.971 0.13704-37.89 4.2848-49.995 14.949 12.083 34.662 69.691 54.689 110.58 36.961 5.1596-2.2736 12.069-4.5601 14.988-8.2449-9.1044-25.316-41.545-44.416-75.571-43.665z" fill="url(#ah)"/>
  <path d="m583.55695,965.832c2.47387.076 4.95532.2183 7.43677.2156 2.40356-.1651 4.69513.406 7.06052.3532 2.11902.041 4.2157-.1225 6.32676-.2043 1.07641-.1323 2.16809-.169 3.26492-.2006 3.58342-.088 3.74624,2.5472.1628,2.6349-1.05748.018-2.09607.092-3.13917.1968-2.22858.08-4.44636.2542-6.68358.2112-2.40247-.023-4.68123-.4056-7.09761-.3533-2.86739-.017-5.74302-.1251-8.58897-.2885-3.47329-.4355-2.21573-3.0005 1.25756-2.565z"/>
  <path d="m668.44 966.15c-2.475-0.02-4.9601 0.026-7.4396-0.073-2.3954-0.2582-4.7074 0.2236-7.0689 0.079-2.119-0.041-4.2078-0.2859-6.314-0.4495-1.0705-0.174-2.1599-0.2531-3.2547-0.3272-3.5773-0.2267-3.8423 2.3999-0.26489 2.6267 1.056 0.059 2.0909 0.1732 3.1291 0.3183 2.2238 0.1663 4.4332 0.4266 6.6704 0.4703 2.4016 0.07 4.6934-0.2236 7.106-0.078 2.866 0.094 5.7436 0.098 8.5938 0.045 3.4875-0.3005 2.3304-2.9123-1.1571-2.6119z"/>
  <path transform="matrix(1.0735 0 0 1.3979 431.76 837.61)" d="m171.13 119.38c0 8.4012-6.5267 15.212-14.578 15.212s-14.578-6.8105-14.578-15.212 6.5267-15.212 14.578-15.212 14.578 6.8105 14.578 15.212z" fill="#f9f9f9"/>
  <g transform="matrix(.66459 0 0 1 201.61 874.96)">
   <path transform="matrix(.84258 0 0 .84258 471.14 23.755)" d="m171.13 119.38c0 8.4012-6.5267 15.212-14.578 15.212s-14.578-6.8105-14.578-15.212 6.5267-15.212 14.578-15.212 14.578 6.8105 14.578 15.212z"/>
   <path d="m605.66 134.6c2.5861-0.78514 3.8952-2.4153 3.2639-3.8335-5.0432-0.3142-10.23 0.56622-14.882 1.1152 0.76566 2.4602 7.2506 4.1795 11.618 2.7182z" fill="url(#d)"/>
  </g>
  <path transform="matrix(2.9467 0 0 .33351 170.26 1025.5)" d="m171.13 119.38c0 8.4012-6.5267 15.212-14.578 15.212s-14.578-6.8105-14.578-15.212 6.5267-15.212 14.578-15.212 14.578 6.8105 14.578 15.212z"/>
  <path d="m622.31 1076.8s3.6512-0.2081 5.6571-0.8717c1.4562-0.4819 2.1127-1.4557 2.0712-3.9689l-0.11214-6.7883c-0.0415-2.5131-0.88206-5.8074-2.3613-5.612l-5.083 0.6711c-3.5329 0.4667-3.6225 2.4575-3.3912 4.9409l0.79228 8.5089c0.23123 2.4834 1.4725 2.8373 2.4271 3.12z" fill="#fff"/>
  <path d="m638.11 1075.8s-2.8084-0.4714-4.3856-0.7919c-1.4731-0.3-2.8891 0.1474-2.9054-2.367l-0.058-8.9534c-0.0163-2.5137 1.2957-4.4574 2.7783-4.3618l4.6834 0.3028c1.4826 0.097 2.6307 2.1955 2.5742 4.7077l-0.19135 8.5028c-0.0565 2.5122-1.5352 2.7401-2.4955 2.9608z" fill="#fff"/>
  <path transform="matrix(.99665 0 0 1.2978 505.51 846.6)" d="m171.13 119.38c0 8.4012-6.5267 15.212-14.578 15.212s-14.578-6.8105-14.578-15.212 6.5267-15.212 14.578-15.212 14.578 6.8105 14.578 15.212z" fill="#f9f9f9"/>
  <g transform="matrix(.66459 0 0 1 260.6 872.27)">
   <path transform="matrix(.84258 0 0 .84258 471.14 23.755)" d="m171.13 119.38c0 8.4012-6.5267 15.212-14.578 15.212s-14.578-6.8105-14.578-15.212 6.5267-15.212 14.578-15.212 14.578 6.8105 14.578 15.212z"/>
   <path d="m605.66 134.6c2.5861-0.78514 3.8952-2.4153 3.2639-3.8335-5.0432-0.3142-10.23 0.56622-14.882 1.1152 0.76566 2.4602 7.2506 4.1795 11.618 2.7182z" fill="url(#d)"/>
  </g>
  <g transform="translate(-2.415e-8 -1.2676)">
   <path transform="translate(15.686 -2.2409)" d="m611.76 1006.4c0 16.213-13.444 29.356-30.028 29.356s-30.028-13.143-30.028-29.356 13.444-29.356 30.028-29.356 30.028 13.143 30.028 29.356z" fill="url(#f)"/>
   <path d="m597.69 973.03c-17.723 0-32.094 14.048-32.094 31.375s14.37 31.375 32.094 31.375 32.094-14.048 32.094-31.375-14.37-31.375-32.094-31.375zm-0.5625 4.4687c15.191 0 27.531 12.055 27.531 26.906s-12.34 26.875-27.531 26.875-27.5-12.024-27.5-26.875 12.309-26.906 27.5-26.906z"/>
   <path transform="translate(15.686 -2.2409)" d="m611.76 1006.4c0 16.213-13.444 29.356-30.028 29.356s-30.028-13.143-30.028-29.356 13.444-29.356 30.028-29.356 30.028 13.143 30.028 29.356z" fill="url(#f)" opacity=".44"/>
   <path d="m596.59 978.56c-6.9055 0.38045-14.223 3.0027-18.188 8.8438 11.433 11.837 29.334 13.957 45.062 12.438-2.4449-12.309-14.218-21.905-26.875-21.281z" fill="url(#i)" opacity=".44"/>
  </g>
  <g transform="translate(65.283 -2.5353)">
   <path transform="translate(15.686 -2.2409)" d="m611.76 1006.4c0 16.213-13.444 29.356-30.028 29.356s-30.028-13.143-30.028-29.356 13.444-29.356 30.028-29.356 30.028 13.143 30.028 29.356z" fill="url(#f)"/>
   <path d="m597.69 973.03c-17.723 0-32.094 14.048-32.094 31.375s14.37 31.375 32.094 31.375 32.094-14.048 32.094-31.375-14.37-31.375-32.094-31.375zm-0.5625 4.4687c15.191 0 27.531 12.055 27.531 26.906s-12.34 26.875-27.531 26.875-27.5-12.024-27.5-26.875 12.309-26.906 27.5-26.906z"/>
   <path transform="translate(15.686 -2.2409)" d="m611.76 1006.4c0 16.213-13.444 29.356-30.028 29.356s-30.028-13.143-30.028-29.356 13.444-29.356 30.028-29.356 30.028 13.143 30.028 29.356z" fill="url(#f)" opacity=".44"/>
   <path d="m596.59 978.56c-6.9055 0.38045-14.223 3.0027-18.188 8.8438 11.433 11.837 29.334 13.957 45.062 12.438-2.4449-12.309-14.218-21.905-26.875-21.281z" fill="url(#i)" opacity=".44"/>
  </g>
  <path d="m692.44897,991.51544c1.33674.0268 2.69421-.0522 3.99391-.422 1.02842-.16944 1.84795-.77015 2.74344-1.29213 .75254-.62783 1.64176-.96986 2.49236-1.39018 .81878-.2514 1.56979-.59134 2.30107-1.06183 .89576-.4595 1.77205-.94059 2.76076-1.05954 1.50536.072 2.07598,1.32636 2.66467,2.65107 .57544.73647.91229,1.64692 1.29896,2.5121 .3257,1.0389.82555,1.98404 1.22695,2.98395 .33618,1.01989.72217,2.01839 1.0758,3.03225 .22445.76938.10258.43124.34356,1.02394 .64235,1.64373-1.44421,2.65573-2.08656,1.01203-.29921-.78538-.17729-.41043-.37884-1.11948-.33957-.97819-.71072-1.94244-1.03595-2.9251-.37682-.96912-.88265-1.87231-1.18334-2.88027-.38924-.87655-.74649-1.75679-1.30413-2.52377-.14913-.34172-.4285-.86957-.43673-1.23978-.64687.00056-1.199.52236-1.80705.72807-.7992.51418-1.62101.9266-2.51731,1.18432-.81091.39974-1.64826.72245-2.36555,1.32228-1.05634.60496-2.05692,1.29165-3.25657,1.50615-1.4825.38496-3.00721.54325-4.52945.4932-1.60919,0-1.60919-2.53528 0-2.53528z"/>
  <path d="m566.14959,997.12676c-1.58196-.2272-3.15785-.4281-4.70616-.87254-1.4027-.37384-2.74904-.94844-4.10796-1.48004-1.23516-.457-2.50164-.81912-3.73235-1.28867-1.00748-.24814-1.82313-.93818-2.72548-1.44704-.42484-.0724-.0405.048.10449.0266 .31175-.0459.13107.12532-.0219.53146-.39301.85158-.69051,1.74379-1.02613,2.62424-.33317.91997-.67374,1.84036-1.079,2.72343-.31807.80529-.74571,1.54929-.96822,2.399-.14.6367-.17257,1.293-.20714,1.9451-.0972,1.7893-2.33837,1.6341-2.24115-.1553 .0475-.8559.10048-1.716.3053-2.54664 .28523-.99637.73154-1.89821 1.13166-2.83872 .4073-.80897.67296-1.70505 1.00565-2.55385 .35312-.8572.62852-1.75778 1.01569-2.59719 .66335-1.72347 1.21023-2.52336 3.00074-1.81673 .80996.4731 1.52893,1.08857 2.44024,1.30994 1.2207.49465 2.50494.81339 3.7332,1.289 1.30143.50998 2.5897,1.06386 3.93365,1.42061 1.482.44028 3.00002.58826 4.51398.82653 1.5661.29472 1.19696,2.79551-.36914,2.50079z"/>
  <path d="m628.75 997.85h2.2184c1.9312 0 3.486 1.5548 3.486 3.486v1.9015c0 1.9313-1.5548 3.486-3.486 3.486h-2.2184c-1.9312 0-3.486-1.5547-3.486-3.486v-1.9015c0-1.9312 1.5548-3.486 3.486-3.486z"/>
 </g>
</svg>
